<?xml version="1.0" encoding="UTF-8"?>
<!DOCTYPE svg PUBLIC "-//W3C//DTD SVG 1.1//EN" "http://www.w3.org/Graphics/SVG/1.1/DTD/svg11.dtd">
<!-- Creator: CorelDRAW -->
<svg xmlns="http://www.w3.org/2000/svg" xml:space="preserve" width="174.533mm" height="97.133mm" version="1.1" style="shape-rendering:geometricPrecision; text-rendering:geometricPrecision; image-rendering:optimizeQuality; fill-rule:evenodd; clip-rule:evenodd"
viewBox="0 0 17439.01 9705.36"
 xmlns:xlink="http://www.w3.org/1999/xlink"
 xmlns:xodm="http://www.corel.com/coreldraw/odm/2003">
 <defs>
  <style type="text/css">
   <![CDATA[
    .fil1 {fill:#EB892D}
    .fil0 {fill:#2B2A29;fill-rule:nonzero}
    .fil2 {fill:#EB892D;fill-rule:nonzero}
   ]]>
  </style>
 </defs>
 <g id="Layer_x0020_1">
  <metadata id="CorelCorpID_0Corel-Layer"/>
  <g id="_2506724285856">
   <g>
    <g>
     <path class="fil0" d="M1037.18 7667.54c0,72.85 -28.49,133.1 -85.46,180.26 -56.97,47.63 -135.9,71.45 -237.24,71.45 -87.79,0 -171.38,-19.61 -251.7,-58.84 -80.32,-39.23 -132.15,-70.51 -155.5,-93.86 -23.35,-23.35 -41.1,-42.04 -54.18,-56.97l-253.1 251.7 31.75 34.56c18.22,21.94 48.1,48.56 90.13,80.78 42.04,31.75 90.6,63.05 145.7,94.33 55.1,30.82 125.62,57.44 210.62,79.85 85.45,22.41 173.72,33.62 264.77,33.62 231.63,0 413.29,-57.44 545.44,-172.32 131.69,-114.88 197.54,-263.38 197.54,-444.58 0,-128.88 -33.15,-234.89 -99.94,-318.95 -66.31,-84.06 -147.57,-144.3 -242.83,-180.72 -95.26,-36.43 -190.06,-68.18 -284.4,-95.73 -94.33,-27.09 -174.65,-60.71 -240.96,-100.41 -65.85,-39.69 -99,-92.46 -99,-158.3 0,-58.38 24.28,-107.88 72.85,-148.98 49.03,-41.09 113.48,-61.64 193.79,-61.64 66.79,0 131.23,15.41 194.27,46.7 63.05,30.81 104.13,55.57 123.75,74.72 19.61,18.67 35.03,34.09 45.77,47.16l251.7 -267.11 -24.29 -27.09c-15.88,-19.14 -41.56,-42.03 -77.52,-67.71 -35.96,-26.15 -77.99,-51.84 -125.62,-76.59 -48.1,-25.22 -109.28,-47.16 -183.99,-65.85 -75.19,-18.67 -152.71,-28.02 -232.57,-28.02 -203.6,0 -368.92,56.03 -495.93,168.11 -127.49,112.55 -191,247.98 -191,406.29 0,128.88 33.16,234.89 99.94,318.95 66.32,84.06 147.1,144.3 241.43,180.72 94.33,36.43 189.14,68.18 284.4,94.8 95.26,27.08 176.06,60.71 242.36,100.87 65.85,40.16 99.01,92.93 99.01,158.77z"/>
     <polygon class="fil0" points="5055.66,8241.94 5055.66,7864.15 4145.5,7864.15 4145.5,6280.13 3724.27,6280.13 3724.27,8241.94 "/>
     <polygon class="fil0" points="6708.36,8241.94 6708.36,7864.15 5798.2,7864.15 5798.2,6280.13 5376.97,6280.13 5376.97,8241.94 "/>
     <polygon class="fil0" points="7254.29,6280.13 6805.51,6280.13 7505.99,7541.45 7505.99,8241.94 7927.22,8241.94 7927.22,7541.45 8627.7,6280.13 8178.92,6280.13 7716.6,7121.64 "/>
     <polygon class="fil0" points="9972.66,6280.13 9566.38,7625.05 9160.1,6280.13 8711.32,6280.13 9355.77,8241.94 9748.5,8241.94 10168.33,6924.57 10588.61,8241.94 10980.88,8241.94 11625.32,6280.13 11176.55,6280.13 10770.27,7625.05 10364,6280.13 "/>
     <path class="fil0" d="M12941.83 7415.38l-477.27 0 239.1 -643.98 238.17 643.98zm139.63 364.24l168.11 462.32 448.78 0 -771.47 -1961.82 -447.37 0 -771.47 1961.82 448.78 0 168.11 -462.32 756.52 0z"/>
     <path class="fil0" d="M13977.63 8241.94l421.23 0 0 -686.94 364.25 0 377.32 686.94 448.78 0 -419.83 -742.98 35.49 -19.14c24.75,-10.74 54.18,-31.28 88.73,-61.64 35.02,-29.89 68.64,-65.85 102.28,-107.87 33.15,-42.04 62.11,-97.14 86.86,-165.78 24.28,-68.18 36.89,-141.49 36.89,-219.95 0,-180.72 -63.51,-333.43 -191,-457.65 -127.02,-124.69 -288.12,-186.8 -482.4,-186.8l-868.6 0 0 1961.82zm1121.71 -1317.37c0,70.98 -25.22,130.75 -75.66,179.79 -50.9,48.56 -114.41,73.31 -190.99,73.31l-433.84 0 0 -518.82 433.84 0c76.59,0 140.1,25.21 190.99,75.18 50.44,50.44 75.66,113.95 75.66,190.53z"/>
     <g>
      <polygon class="fil0" points="2283.61,7864.15 2283.61,7429.38 3081.23,7429.38 3081.23,7051.57 1862.37,7056.07 1862.37,8241.94 3334.34,8241.94 3334.34,7864.15 "/>
      <polygon class="fil1" points="3305.87,6658.83 1862.37,6658.83 1862.37,6280.09 3305.87,6280.09 "/>
     </g>
     <g>
      <polygon class="fil0" points="16388.29,7864.15 16388.29,7429.38 17185.9,7429.38 17185.9,7051.57 15967.04,7056.07 15967.04,8241.94 17439.01,8241.94 17439.01,7864.15 "/>
      <polygon class="fil1" points="17410.53,6658.83 15967.04,6658.83 15967.04,6280.09 17410.53,6280.09 "/>
     </g>
     <path class="fil0" d="M1037.17 7667.55c0,72.85 -28.49,133.09 -85.46,180.25 -56.97,47.63 -135.89,71.45 -237.23,71.45 -87.8,0 -171.38,-19.61 -251.7,-58.84 -80.32,-39.23 -132.16,-70.51 -155.51,-93.86 -23.34,-23.35 -41.09,-42.03 -54.17,-56.97l-253.1 251.7 31.75 34.56c18.22,21.94 48.1,48.56 90.13,80.78 42.03,31.75 90.6,63.05 145.7,94.33 55.1,30.82 125.62,57.44 210.61,79.85 85.46,22.41 173.72,33.62 264.78,33.62 231.62,0 413.28,-57.44 545.43,-172.32 131.69,-114.88 197.54,-263.37 197.54,-444.57 0,-128.88 -33.15,-234.9 -99.94,-318.95 -66.31,-84.06 -147.57,-144.3 -242.83,-180.72 -95.26,-36.43 -190.06,-68.18 -284.4,-95.73 -94.32,-27.09 -174.65,-60.71 -240.96,-100.41 -65.84,-39.69 -99,-92.46 -99,-158.3 0,-58.38 24.29,-107.88 72.85,-148.97 49.03,-41.1 113.48,-61.65 193.8,-61.65 66.78,0 131.22,15.42 194.26,46.7 63.05,30.82 104.14,55.57 123.76,74.72 19.6,18.67 35.02,34.09 45.76,47.16l251.7 -267.11 -24.29 -27.09c-15.88,-19.14 -41.56,-42.03 -77.52,-67.71 -35.96,-26.15 -77.99,-51.83 -125.62,-76.58 -48.1,-25.22 -109.27,-47.17 -183.99,-65.85 -75.19,-18.68 -152.71,-28.03 -232.56,-28.03 -203.6,0 -368.92,56.04 -495.93,168.12 -127.5,112.54 -191,247.97 -191,406.28 0,128.88 33.16,234.89 99.94,318.95 66.32,84.05 147.1,144.29 241.43,180.72 94.33,36.42 189.13,68.17 284.39,94.79 95.27,27.09 176.06,60.71 242.37,100.87 65.85,40.17 99,92.93 99,158.78z"/>
    </g>
    <g>
     <g>
      <path class="fil1" d="M10246.82 3771.01c-81.01,-12.63 -158.27,-1.28 -226.12,27.93 -98.36,42.37 -212.2,23.41 -288.85,-51.44l-136.23 -133.04c-110.8,-108.25 -173.3,-256.67 -173.3,-411.61l0 -627.54c0,-111.25 44.85,-217.79 124.47,-295.48l354 -345.77c57.12,-55.85 137.01,-85.34 215.83,-72.5 46.28,7.54 95.17,7.19 145.57,-2.75 166.65,-32.92 298.51,-170.12 323.55,-338.13 41.2,-277.5 -196.62,-512.28 -474.91,-465.64 -173.69,29.05 -311.3,172.47 -334.45,347.1 -8.18,61.52 -2.6,120.85 14.1,175.37 30.85,100.76 -0.09,210.39 -75.53,284.06l-176.16 171.99c-90.57,88.46 -212.1,137.98 -338.67,137.98l-855.94 0c-144.91,0 -284.07,-56.72 -387.76,-157.97l-218.24 -213.14c-67.93,-66.33 -101.58,-162.82 -81.21,-255.54 10,-45.71 12.35,-94.29 5.36,-144.5 -24.4,-175.32 -163.66,-318.6 -338.54,-346.08 -278.31,-43.73 -514.84,193.68 -469.58,472.25 28.53,175.71 174.11,314.62 350.69,336.91 51.04,6.41 100.38,3.33 146.71,-7.69 89.36,-21.2 183.36,0.15 249.09,64.37l222.29 217.1c127.9,124.91 200.01,296.1 200.01,474.84l0 646.74c0,163.13 -65.79,319.33 -182.52,433.38l-96.93 94.62c-74.86,73.13 -189.58,88.13 -279.8,35.07 -75.2,-44.22 -165.8,-64.99 -262.02,-52.26 -177.85,23.51 -322.51,165.66 -348.56,343.19 -42.73,291.25 221.88,535.09 517.65,455.6 177.18,-47.61 295.52,-215.23 295.52,-398.74l0 -0.93c0,-33.54 13.57,-65.74 37.62,-89.2l369.19 -360.62c97.24,-94.97 227.83,-148.13 363.77,-148.13l685.43 0c108.06,0 211.81,42.23 289.1,117.7l259.66 253.59c62.76,61.33 101.6,144.6 101.56,232.34 0,28.45 2.99,57.59 9.35,87.34 35.47,164.93 173.02,294.09 340.1,317.65 276.12,38.9 508.93,-198.38 462.31,-475.68 -28.66,-170.16 -167.08,-306.25 -337.6,-332.75zm-1541.2 -886.85l-179.61 0 89.99 -242.36 89.63 242.36zm52.56 137.08l63.27 174 168.89 0 -290.33 -738.33 -168.37 0 -290.33 738.33 168.89 0 63.27 -174 284.72 0zm453.61 -342.88l-142.54 0 0 516.88 142.54 0 0 -516.88zm10.36 -147.63c0,-23.9 -7.55,-42.88 -22.67,-57.29 -15.11,-14.42 -35.67,-21.62 -61.86,-21.62 -23.55,0 -42.72,7.2 -57.12,21.62 -14.41,14.41 -21.61,33.39 -21.61,57.29 0,23.9 7.2,43.05 21.44,57.46 14.23,14.42 33.39,21.62 57.29,21.62 26.19,0 46.75,-7.2 61.86,-21.62 15.12,-14.41 22.67,-33.56 22.67,-57.46z"/>
      <g>
       <path class="fil1" d="M10535.81 2177.89l158.67 -162.45c55.85,-57.12 85.34,-137 72.5,-215.83 -7.54,-46.28 -7.19,-95.17 2.74,-145.57 32.92,-166.65 170.13,-298.51 338.14,-323.54 277.49,-41.21 512.28,196.61 465.64,474.9 -29.05,173.69 -172.47,311.29 -347.1,334.46 -61.52,8.17 -120.85,2.59 -175.37,-14.11 -100.76,-30.85 -210.39,0.1 -284.06,75.54l-102.66 105.12 -105.12 102.66c-75.44,73.67 -106.39,183.3 -75.54,284.06 11.92,38.91 18.18,80.26 17.81,123.12 0.39,42.93 -5.87,84.37 -17.81,123.35 -30.86,100.76 0.09,210.39 75.54,284.06l105.12 102.66 102.66 105.12c73.67,75.45 183.3,106.39 284.06,75.54 54.52,-16.71 113.85,-22.28 175.37,-14.12 174.63,23.17 318.06,160.78 347.1,334.46 46.64,278.3 -188.15,516.12 -465.64,474.91 -168.01,-25.03 -305.22,-156.89 -338.14,-323.55 -9.93,-50.4 -10.28,-99.28 -2.74,-145.56 12.84,-78.84 -16.65,-158.72 -72.49,-215.83l-158.68 -162.46 -162.46 -158.68c-57.11,-55.83 -137,-85.34 -215.83,-72.49 -46.28,7.53 -95.17,7.18 -145.56,-2.75 -166.65,-32.92 -298.52,-170.12 -323.55,-338.13 -3.34,-22.46 -4.82,-44.63 -4.63,-66.41 -0.19,-21.77 1.29,-43.95 4.63,-66.42 25.03,-168.01 156.88,-305.22 323.55,-338.14 50.4,-9.93 99.28,-10.28 145.56,-2.74 78.84,12.84 158.71,-16.66 215.83,-72.5l162.46 -158.68z"/>
       <path class="fil1" d="M6903.21 2177.89l-158.67 -162.45c-55.85,-57.12 -85.34,-137 -72.5,-215.83 7.53,-46.28 7.19,-95.17 -2.75,-145.57 -32.92,-166.65 -170.12,-298.51 -338.13,-323.54 -277.5,-41.21 -512.29,196.61 -465.64,474.9 29.05,173.69 172.46,311.29 347.1,334.46 61.52,8.17 120.84,2.59 175.37,-14.11 100.76,-30.85 210.39,0.1 284.06,75.54l102.66 105.12 105.12 102.66c75.44,73.67 106.39,183.3 75.54,284.06 -11.92,38.91 -18.18,80.26 -17.81,123.12 -0.39,42.93 5.87,84.37 17.81,123.35 30.85,100.76 -0.09,210.39 -75.54,284.06l-105.12 102.66 -102.66 105.12c-73.67,75.45 -183.3,106.39 -284.06,75.54 -54.52,-16.71 -113.85,-22.28 -175.37,-14.12 -174.64,23.17 -318.06,160.78 -347.1,334.46 -46.65,278.3 188.14,516.12 465.64,474.91 168.01,-25.03 305.21,-156.89 338.13,-323.55 9.94,-50.4 10.28,-99.28 2.75,-145.56 -12.84,-78.84 16.65,-158.72 72.49,-215.83l158.68 -162.46 162.46 -158.68c57.11,-55.83 137,-85.34 215.83,-72.49 46.27,7.53 95.16,7.18 145.56,-2.75 166.65,-32.92 298.52,-170.12 323.55,-338.13 3.34,-22.46 4.82,-44.63 4.62,-66.41 0.2,-21.77 -1.28,-43.95 -4.62,-66.42 -25.03,-168.01 -156.88,-305.22 -323.55,-338.14 -50.4,-9.93 -99.29,-10.28 -145.56,-2.74 -78.84,12.84 -158.71,-16.66 -215.83,-72.5l-162.46 -158.68z"/>
      </g>
      <g>
       <path class="fil1" d="M8081.04 1043.64l-162.46 -158.67c-57.12,-55.84 -137,-85.34 -215.83,-72.49 -46.27,7.53 -95.16,7.18 -145.56,-2.75 -166.66,-32.92 -298.52,-170.13 -323.55,-338.13 -41.2,-277.5 196.61,-512.29 474.9,-465.65 173.69,29.05 311.3,172.47 334.46,347.1 8.17,61.52 2.6,120.85 -14.11,175.37 -30.85,100.76 0.1,210.39 75.54,284.07l105.12 102.65 102.66 105.12c73.67,75.44 183.3,106.39 284.06,75.54 38.91,-11.91 80.26,-18.18 123.12,-17.81 42.93,-0.39 84.38,5.87 123.35,17.81 100.77,30.86 210.39,-0.09 284.06,-75.54l102.66 -105.12 105.12 -102.66c75.45,-73.67 106.39,-183.29 75.54,-284.06 -16.7,-54.52 -22.28,-113.85 -14.11,-175.37 23.17,-174.63 160.77,-318.05 334.46,-347.1 278.29,-46.64 516.11,188.15 474.9,465.65 -25.03,168 -156.88,305.21 -323.54,338.13 -50.4,9.93 -99.29,10.28 -145.57,2.74 -78.83,-12.84 -158.71,16.66 -215.83,72.5l-162.46 158.67 -158.67 162.46c-55.84,57.12 -85.35,137.01 -72.49,215.83 7.53,46.28 7.18,95.17 -2.75,145.57 -32.92,166.65 -170.13,298.51 -338.13,323.54 -22.47,3.34 -44.64,4.82 -66.42,4.63 -21.77,0.19 -43.95,-1.29 -66.42,-4.63 -168.01,-25.03 -305.21,-156.88 -338.13,-323.54 -9.94,-50.41 -10.28,-99.29 -2.75,-145.57 12.84,-78.84 -16.65,-158.71 -72.5,-215.83l-158.67 -162.46z"/>
       <path class="fil1" d="M8081.04 4589.09l-162.46 158.67c-57.12,55.85 -137,85.34 -215.83,72.5 -46.27,-7.53 -95.16,-7.19 -145.56,2.75 -166.66,32.92 -298.52,170.12 -323.55,338.13 -41.2,277.5 196.61,512.29 474.9,465.64 173.69,-29.05 311.3,-172.47 334.46,-347.1 8.17,-61.52 2.6,-120.85 -14.11,-175.37 -30.85,-100.76 0.1,-210.39 75.54,-284.06l105.12 -102.66 102.66 -105.12c73.67,-75.44 183.3,-106.39 284.06,-75.54 38.91,11.92 80.26,18.18 123.12,17.81 42.93,0.39 84.38,-5.87 123.35,-17.81 100.77,-30.85 210.39,0.09 284.06,75.54l102.66 105.12 105.12 102.66c75.45,73.67 106.39,183.3 75.54,284.06 -16.7,54.52 -22.28,113.85 -14.11,175.37 23.17,174.63 160.77,318.06 334.46,347.1 278.29,46.65 516.11,-188.14 474.9,-465.64 -25.03,-168.01 -156.88,-305.21 -323.54,-338.13 -50.4,-9.94 -99.29,-10.28 -145.57,-2.75 -78.83,12.84 -158.71,-16.65 -215.83,-72.49l-162.46 -158.68 -158.67 -162.46c-55.84,-57.11 -85.35,-137 -72.49,-215.83 7.53,-46.27 7.18,-95.17 -2.75,-145.56 -32.92,-166.65 -170.13,-298.52 -338.13,-323.55 -22.47,-3.34 -44.64,-4.82 -66.42,-4.62 -21.77,-0.2 -43.95,1.28 -66.42,4.62 -168.01,25.03 -305.21,156.88 -338.13,323.55 -9.94,50.4 -10.28,99.29 -2.75,145.56 12.84,78.84 -16.65,158.71 -72.5,215.83l-158.67 162.46z"/>
      </g>
     </g>
     <path class="fil1" d="M8719.51 4824.81c223.1,0 403.96,180.85 403.96,403.96 0,223.1 -180.86,403.96 -403.96,403.96 -223.11,0 -403.96,-180.86 -403.96,-403.96 0,-223.11 180.85,-403.96 403.96,-403.96z"/>
     <path class="fil1" d="M11175.48 2412.4c223.1,0 403.96,180.86 403.96,403.96 0,223.11 -180.86,403.96 -403.96,403.96 -223.11,0 -403.97,-180.85 -403.97,-403.96 0,-223.1 180.86,-403.96 403.97,-403.96z"/>
     <path class="fil1" d="M8719.51 0c223.1,0 403.96,180.86 403.96,403.97 0,223.1 -180.86,403.96 -403.96,403.96 -223.11,0 -403.96,-180.86 -403.96,-403.96 0,-223.11 180.85,-403.97 403.96,-403.97z"/>
     <path class="fil1" d="M6263.53 2412.4c223.11,0 403.96,180.86 403.96,403.96 0,223.11 -180.85,403.96 -403.96,403.96 -223.1,0 -403.96,-180.85 -403.96,-403.96 0,-223.1 180.86,-403.96 403.96,-403.96z"/>
    </g>
   </g>
   <path class="fil2" d="M4872.39 9705.36c219.15,0 308.1,-100.55 308.1,-275.87 0,-201.11 -139.23,-248.81 -281.03,-292.64 -105.71,-33.51 -188.22,-64.46 -188.22,-168.87 0,-88.96 52.86,-134.07 166.3,-134.07 110.86,0 157.27,45.11 166.29,167.58l122.47 -18.05c-14.18,-168.88 -88.95,-262.98 -288.76,-262.98 -199.83,0 -288.77,95.39 -288.77,251.38 0,188.22 134.07,232.04 274.59,277.16 109.58,37.39 194.66,69.61 194.66,185.64 0,107 -51.56,157.27 -185.63,157.27 -113.45,0 -166.3,-42.54 -183.06,-176.61l-121.18 19.33c20.62,180.48 101.84,270.72 304.24,270.72zm1023.17 0c202.39,0 323.58,-104.41 323.58,-330.02l0 -324.86c0,-226.89 -121.18,-330.02 -323.58,-330.02 -202.39,0 -323.58,103.13 -323.58,330.02l0 324.86c0,225.61 119.89,330.02 323.58,330.02zm0 -114.74c-130.2,0 -198.53,-67.04 -198.53,-217.86l0 -318.42c0,-150.83 68.32,-217.86 198.53,-217.86 128.91,0 198.53,67.04 198.53,217.86l0 318.42c0,150.83 -69.61,217.86 -198.53,217.86zm760.2 105.71l520.81 0 -19.34 -114.74 -376.42 0 0 -852.12 -125.05 0 0 966.86zm1203.66 9.02c203.68,0 309.4,-104.41 309.4,-330.02l0 -645.86 -123.76 0 0 643.28c0,148.25 -55.43,216.57 -185.64,216.57 -130.2,0 -184.35,-68.32 -184.35,-216.57l0 -643.28 -123.76 0 0 645.86c0,225.61 104.42,330.02 308.11,330.02zm934.23 -9.02l126.34 0 0 -849.55 246.23 0 0 -117.31 -618.79 0 0 117.31 246.23 0 0 849.55zm775.67 0l123.76 0 0 -966.86 -123.76 0 0 966.86zm892.97 9.02c202.39,0 323.58,-104.41 323.58,-330.02l0 -324.86c0,-226.89 -121.18,-330.02 -323.58,-330.02 -202.39,0 -323.58,103.13 -323.58,330.02l0 324.86c0,225.61 119.89,330.02 323.58,330.02zm0 -114.74c-130.2,0 -198.53,-67.04 -198.53,-217.86l0 -318.42c0,-150.83 68.32,-217.86 198.53,-217.86 128.91,0 198.53,67.04 198.53,217.86l0 318.42c0,150.83 -69.61,217.86 -198.53,217.86zm760.2 105.71l122.46 0 0 -732.23 2.59 0 371.27 732.23 121.18 0 0 -966.86 -119.89 0 0 709.03 -2.58 0 -362.24 -709.03 -132.78 0 0 966.86zm1340.31 9.02c219.15,0 308.1,-100.55 308.1,-275.87 0,-201.11 -139.23,-248.81 -281.03,-292.64 -105.71,-33.51 -188.22,-64.46 -188.22,-168.87 0,-88.96 52.86,-134.07 166.3,-134.07 110.86,0 157.27,45.11 166.29,167.58l122.47 -18.05c-14.18,-168.88 -88.95,-262.98 -288.76,-262.98 -199.83,0 -288.77,95.39 -288.77,251.38 0,188.22 134.07,232.04 274.59,277.16 109.58,37.39 194.66,69.61 194.66,185.64 0,107 -51.56,157.27 -185.63,157.27 -113.45,0 -166.3,-42.54 -183.06,-176.61l-121.18 19.33c20.62,180.48 101.84,270.72 304.24,270.72z"/>
  </g>
 </g>
</svg>
