<?xml version="1.0" encoding="UTF-8"?>
<!DOCTYPE svg PUBLIC "-//W3C//DTD SVG 1.1//EN" "http://www.w3.org/Graphics/SVG/1.1/DTD/svg11.dtd">
<!-- Creator: CorelDRAW -->
<svg xmlns="http://www.w3.org/2000/svg" xml:space="preserve" width="160.083mm" height="157.644mm" version="1.1" style="shape-rendering:geometricPrecision; text-rendering:geometricPrecision; image-rendering:optimizeQuality; fill-rule:evenodd; clip-rule:evenodd"
viewBox="0 0 16007.26 15763.37"
 xmlns:xlink="http://www.w3.org/1999/xlink"
 xmlns:xodm="http://www.corel.com/coreldraw/odm/2003">
 <defs>
  <style type="text/css">
   <![CDATA[
    .fil0 {fill:#EB892D}
   ]]>
  </style>
 </defs>
 <g id="Layer_x0020_1">
  <metadata id="CorelCorpID_0Corel-Layer"/>
  <g id="_2506488709296">
   <g>
    <path class="fil0" d="M12277.87 10553.3c-226.71,-35.37 -442.92,-3.58 -632.78,78.13 -275.27,118.57 -593.83,65.53 -808.39,-143.93l-381.22 -372.33c-310.09,-302.94 -485,-718.3 -485,-1151.91l0 -1756.17c0,-311.35 125.54,-609.5 348.33,-826.92l990.7 -967.64c159.85,-156.29 383.4,-238.82 604.01,-202.88 129.52,21.1 266.34,20.12 407.38,-7.69 466.38,-92.13 835.39,-476.1 905.45,-946.29 115.29,-776.59 -550.23,-1433.64 -1329.04,-1303.11 -486.08,81.29 -871.17,482.67 -935.98,971.37 -22.89,172.15 -7.27,338.19 39.48,490.75 86.33,281.99 -0.28,588.79 -211.4,794.97l-492.96 481.31c-253.46,247.55 -593.55,386.12 -947.79,386.12l-2395.39 0c-405.52,0 -794.97,-158.74 -1085.17,-442.09l-610.74 -596.44c-190.14,-185.62 -284.28,-455.66 -227.28,-715.15 27.98,-127.91 34.56,-263.88 14.97,-404.39 -68.29,-490.63 -457.99,-891.6 -947.42,-968.5 -778.87,-122.4 -1440.79,542.02 -1314.11,1321.61 79.81,491.72 487.25,880.49 981.41,942.87 142.84,17.95 280.91,9.32 410.58,-21.53 250.05,-59.35 513.13,0.42 697.08,180.15l622.08 607.55c357.93,349.57 559.71,828.65 559.71,1328.87l0 1809.91c0,456.52 -184.12,893.67 -510.8,1212.82l-271.26 264.81c-209.49,204.67 -530.54,246.63 -783.04,98.15 -210.43,-123.76 -464.01,-181.88 -733.26,-146.26 -497.74,65.8 -902.53,463.62 -975.42,960.43 -119.57,815.11 620.92,1497.5 1448.64,1275.03 495.83,-133.25 827.02,-602.35 827.02,-1115.89l0 -2.62c0,-93.88 37.97,-183.95 105.27,-249.61l1033.2 -1009.19c272.12,-265.79 637.6,-414.54 1018.01,-414.54l1918.2 0c302.4,0 592.75,118.16 809.08,329.4l726.66 709.67c175.63,171.65 284.31,404.67 284.21,650.22 0,79.62 8.35,161.19 26.15,244.41 99.27,461.57 484.21,823.03 951.8,888.97 772.74,108.85 1424.28,-555.17 1293.79,-1331.2 -80.2,-476.22 -467.59,-857.07 -944.8,-931.21zm-4313.08 -2481.91l-502.66 0 251.82 -678.25 250.83 678.25zm147.06 383.63l177.07 486.92 472.65 0 -812.52 -2066.22 -471.17 0 -812.53 2066.22 472.66 0 177.06 -486.92 796.78 0zm1269.44 -959.58l-398.89 0 0 1446.49 398.89 0 0 -1446.49zm29.01 -413.14c0,-66.9 -21.16,-120.01 -63.45,-160.34 -42.3,-40.34 -99.84,-60.51 -173.13,-60.51 -65.91,0 -119.52,20.17 -159.85,60.51 -40.34,40.33 -60.49,93.44 -60.49,160.34 0,66.89 20.15,120.5 59.99,160.83 39.85,40.34 93.46,60.49 160.35,60.49 73.29,0 130.83,-20.15 173.13,-60.49 42.29,-40.33 63.45,-93.94 63.45,-160.83z"/>
    <g>
     <path class="fil0" d="M13086.61 6094.9l444.05 -454.62c156.29,-159.87 238.82,-383.39 202.88,-604.03 -21.09,-129.5 -20.13,-266.32 7.69,-407.36 92.13,-466.4 476.1,-835.39 946.28,-905.45 776.6,-115.3 1433.66,550.23 1303.12,1329.03 -81.29,486.09 -482.65,871.16 -971.36,936 -172.17,22.88 -338.19,7.25 -490.77,-39.48 -281.97,-86.35 -588.78,0.27 -794.96,211.39l-287.27 294.2 -294.2 287.27c-211.12,206.18 -297.74,512.99 -211.39,794.96 33.34,108.88 50.86,224.62 49.83,344.55 1.09,120.16 -16.42,236.13 -49.83,345.21 -86.37,281.98 0.25,588.77 211.4,794.94l294.19 287.28 287.29 294.21c206.16,211.13 512.96,297.74 794.94,211.39 152.56,-46.74 318.6,-62.36 490.77,-39.5 488.72,64.85 890.09,449.93 971.36,936 130.54,778.82 -526.52,1444.34 -1303.12,1329.04 -470.18,-70.06 -854.14,-439.06 -946.28,-905.45 -27.82,-141.03 -28.78,-277.84 -7.67,-407.36 35.93,-220.62 -46.61,-444.17 -202.89,-604.02l-444.06 -454.64 -454.64 -444.06c-159.85,-156.27 -383.4,-238.83 -604.02,-202.88 -129.51,21.09 -266.33,20.12 -407.37,-7.68 -466.38,-92.13 -835.38,-476.1 -905.45,-946.29 -9.33,-62.87 -13.46,-124.92 -12.92,-185.85 -0.54,-60.94 3.59,-123 12.92,-185.88 70.07,-470.18 439.05,-854.14 905.45,-946.28 141.06,-27.82 277.86,-28.78 407.37,-7.69 220.63,35.95 444.16,-46.59 604.02,-202.89l454.64 -444.06z"/>
     <path class="fil0" d="M2920.66 6094.9l-444.05 -454.62c-156.3,-159.87 -238.83,-383.39 -202.89,-604.03 21.09,-129.5 20.13,-266.32 -7.68,-407.36 -92.14,-466.4 -476.1,-835.39 -946.29,-905.45 -776.6,-115.3 -1433.66,550.23 -1303.11,1329.03 81.28,486.09 482.65,871.16 971.36,936 172.16,22.88 338.19,7.25 490.76,-39.48 281.97,-86.35 588.78,0.27 794.96,211.39l287.27 294.2 294.21 287.27c211.11,206.18 297.73,512.99 211.39,794.96 -33.35,108.88 -50.86,224.62 -49.84,344.55 -1.08,120.16 16.43,236.13 49.84,345.21 86.36,281.98 -0.26,588.77 -211.41,794.94l-294.19 287.28 -287.28 294.21c-206.17,211.13 -512.96,297.74 -794.95,211.39 -152.56,-46.74 -318.6,-62.36 -490.76,-39.5 -488.72,64.85 -890.1,449.93 -971.36,936 -130.55,778.82 526.51,1444.34 1303.11,1329.04 470.19,-70.06 854.14,-439.06 946.29,-905.45 27.81,-141.03 28.77,-277.84 7.67,-407.36 -35.94,-220.62 46.6,-444.17 202.88,-604.02l444.07 -454.64 454.64 -444.06c159.84,-156.27 383.4,-238.83 604.02,-202.88 129.5,21.09 266.32,20.12 407.36,-7.68 466.39,-92.13 835.39,-476.1 905.45,-946.29 9.33,-62.87 13.47,-124.92 12.93,-185.85 0.54,-60.94 -3.6,-123 -12.93,-185.88 -70.06,-470.18 -439.05,-854.14 -905.45,-946.28 -141.05,-27.82 -277.86,-28.78 -407.36,-7.69 -220.64,35.95 -444.16,-46.59 -604.02,-202.89l-454.64 -444.06z"/>
    </g>
    <g>
     <path class="fil0" d="M6216.86 2920.66l-454.62 -444.05c-159.86,-156.3 -383.38,-238.83 -604.02,-202.89 -129.51,21.09 -266.33,20.13 -407.37,-7.68 -466.4,-92.14 -835.38,-476.1 -905.44,-946.29 -115.3,-776.6 550.22,-1433.66 1329.02,-1303.11 486.09,81.28 871.16,482.65 936,971.36 22.88,172.16 7.25,338.19 -39.48,490.76 -86.35,281.97 0.27,588.78 211.39,794.96l294.2 287.27 287.27 294.21c206.18,211.11 513,297.73 794.96,211.39 108.88,-33.35 224.63,-50.86 344.55,-49.84 120.16,-1.09 236.13,16.43 345.21,49.84 281.98,86.36 588.78,-0.26 794.94,-211.41l287.29 -294.19 294.2 -287.29c211.13,-206.16 297.74,-512.95 211.39,-794.94 -46.73,-152.56 -62.36,-318.6 -39.5,-490.76 64.86,-488.72 449.93,-890.1 936,-971.36 778.82,-130.55 1444.34,526.51 1329.04,1303.11 -70.06,470.19 -439.06,854.14 -905.44,946.29 -141.04,27.81 -277.85,28.77 -407.37,7.66 -220.62,-35.93 -444.17,46.61 -604.02,202.89l-454.64 444.07 -444.06 454.64c-156.27,159.84 -238.83,383.4 -202.87,604.02 21.09,129.5 20.11,266.32 -7.69,407.36 -92.13,466.39 -476.1,835.39 -946.29,905.45 -62.87,9.33 -124.91,13.47 -185.85,12.93 -60.94,0.54 -123,-3.6 -185.87,-12.93 -470.19,-70.06 -854.15,-439.05 -946.29,-905.45 -27.82,-141.05 -28.78,-277.86 -7.69,-407.36 35.95,-220.64 -46.59,-444.16 -202.88,-604.02l-444.07 -454.64z"/>
     <path class="fil0" d="M6216.86 12842.71l-454.62 444.04c-159.86,156.3 -383.38,238.83 -604.02,202.89 -129.51,-21.09 -266.33,-20.13 -407.37,7.69 -466.4,92.13 -835.38,476.1 -905.44,946.28 -115.3,776.6 550.22,1433.66 1329.02,1303.12 486.09,-81.29 871.16,-482.65 936,-971.37 22.88,-172.16 7.25,-338.19 -39.48,-490.76 -86.35,-281.97 0.27,-588.78 211.39,-794.96l294.2 -287.27 287.27 -294.21c206.18,-211.11 513,-297.73 794.96,-211.38 108.88,33.34 224.63,50.85 344.55,49.83 120.16,1.09 236.13,-16.42 345.21,-49.83 281.98,-86.37 588.78,0.25 794.94,211.4l287.29 294.19 294.2 287.29c211.13,206.16 297.74,512.96 211.39,794.94 -46.73,152.56 -62.36,318.6 -39.5,490.76 64.86,488.73 449.93,890.1 936,971.37 778.82,130.54 1444.34,-526.52 1329.04,-1303.12 -70.06,-470.18 -439.06,-854.14 -905.44,-946.28 -141.04,-27.82 -277.85,-28.78 -407.37,-7.67 -220.62,35.93 -444.17,-46.61 -604.02,-202.89l-454.64 -444.06 -444.06 -454.65c-156.27,-159.84 -238.83,-383.39 -202.87,-604.02 21.09,-129.5 20.11,-266.32 -7.69,-407.36 -92.13,-466.39 -476.1,-835.39 -946.29,-905.45 -62.87,-9.33 -124.91,-13.47 -185.85,-12.92 -60.94,-0.55 -123,3.59 -185.87,12.92 -470.19,70.06 -854.15,439.05 -946.29,905.45 -27.82,141.05 -28.78,277.86 -7.69,407.36 35.95,220.64 -46.59,444.16 -202.88,604.02l-444.07 454.65z"/>
    </g>
   </g>
   <path class="fil0" d="M8003.64 13502.35c624.35,0 1130.49,506.15 1130.49,1130.52 0,624.34 -506.15,1130.49 -1130.49,1130.49 -624.35,0 -1130.49,-506.16 -1130.49,-1130.49 0,-624.38 506.15,-1130.52 1130.49,-1130.52z"/>
   <path class="fil0" d="M14876.76 6751.17c624.35,0 1130.49,506.15 1130.49,1130.49 0,624.38 -506.15,1130.49 -1130.49,1130.49 -624.35,0 -1130.49,-506.12 -1130.49,-1130.49 0,-624.35 506.15,-1130.49 1130.49,-1130.49z"/>
   <path class="fil0" d="M8003.64 0c624.35,0 1130.49,506.16 1130.49,1130.52 0,624.35 -506.15,1130.49 -1130.49,1130.49 -624.35,0 -1130.49,-506.15 -1130.49,-1130.49 0,-624.37 506.15,-1130.52 1130.49,-1130.52z"/>
   <path class="fil0" d="M1130.52 6751.17c624.35,0 1130.49,506.15 1130.49,1130.49 0,624.38 -506.15,1130.49 -1130.49,1130.49 -624.38,0 -1130.52,-506.12 -1130.52,-1130.49 0,-624.35 506.15,-1130.49 1130.52,-1130.49z"/>
  </g>
 </g>
</svg>
