<?xml version="1.0" encoding="UTF-8"?>
<!DOCTYPE svg PUBLIC "-//W3C//DTD SVG 1.1//EN" "http://www.w3.org/Graphics/SVG/1.1/DTD/svg11.dtd">
<!-- Creator: CorelDRAW -->
<svg xmlns="http://www.w3.org/2000/svg" xml:space="preserve" width="238.637mm" height="56.3733mm" version="1.1" style="shape-rendering:geometricPrecision; text-rendering:geometricPrecision; image-rendering:optimizeQuality; fill-rule:evenodd; clip-rule:evenodd"
viewBox="0 0 23862.62 5637.08"
 xmlns:xlink="http://www.w3.org/1999/xlink"
 xmlns:xodm="http://www.corel.com/coreldraw/odm/2003">
 <defs>
  <style type="text/css">
   <![CDATA[
    .fil0 {fill:#EB892D}
    .fil1 {fill:#2B2A29;fill-rule:nonzero}
    .fil2 {fill:#EB892D;fill-rule:nonzero}
   ]]>
  </style>
 </defs>
 <g id="Layer_x0020_1">
  <metadata id="CorelCorpID_0Corel-Layer"/>
  <g id="_2506857143984">
   <g>
    <g>
     <path class="fil0" d="M4390.64 3773.92c-81.08,-12.64 -158.39,-1.28 -226.29,27.95 -98.44,42.4 -212.35,23.43 -289.08,-51.48l-136.33 -133.14c-110.89,-108.34 -173.43,-256.87 -173.43,-411.93l0 -628.02c0,-111.34 44.9,-217.96 124.56,-295.71l354.27 -346.03c57.17,-55.9 137.11,-85.41 216,-72.56 46.32,7.55 95.25,7.2 145.68,-2.75 166.78,-32.95 298.75,-170.25 323.8,-338.39 41.23,-277.72 -196.76,-512.69 -475.27,-466 -173.83,29.07 -311.54,172.6 -334.71,347.36 -8.19,61.57 -2.6,120.94 14.12,175.5 30.87,100.84 -0.1,210.55 -75.6,284.28l-176.28 172.12c-90.65,88.53 -212.26,138.08 -338.93,138.08l-856.61 0c-145.01,0 -284.28,-56.77 -388.06,-158.09l-218.4 -213.3c-68,-66.38 -101.67,-162.94 -81.28,-255.74 10,-45.75 12.35,-94.37 5.35,-144.61 -24.42,-175.45 -163.78,-318.85 -338.8,-346.34 -278.53,-43.77 -515.24,193.83 -469.93,472.62 28.54,175.84 174.24,314.87 350.95,337.17 51.08,6.42 100.46,3.33 146.83,-7.7 89.42,-21.22 183.49,0.15 249.28,64.42l222.46 217.27c127.99,125 200.15,296.33 200.15,475.21l0 647.24c0,163.25 -65.84,319.58 -182.66,433.71l-97.01 94.7c-74.91,73.19 -189.72,88.2 -280.02,35.1 -75.25,-44.26 -165.93,-65.04 -262.22,-52.3 -177.99,23.53 -322.76,165.79 -348.82,343.44 -42.75,291.49 222.05,535.52 518.05,455.96 177.31,-47.65 295.75,-215.4 295.75,-399.05l0 -0.93c0,-33.57 13.58,-65.79 37.65,-89.27l369.48 -360.89c97.31,-95.05 228.01,-148.24 364.04,-148.24l685.96 0c108.15,0 211.97,42.26 289.34,117.79l259.86 253.79c62.81,61.38 101.67,144.71 101.64,232.52 0,28.47 2.98,57.64 9.35,87.41 35.5,165.05 173.15,294.32 340.36,317.9 276.34,38.93 509.34,-198.53 462.67,-476.05 -28.68,-170.29 -167.21,-306.49 -337.86,-333.01zm-1542.38 -887.54l-179.75 0 90.05 -242.55 89.71 242.55zm52.59 137.18l63.32 174.12 169.02 0 -290.56 -738.89 -168.49 0 -290.57 738.89 169.02 0 63.33 -174.12 284.93 0zm453.96 -343.14l-142.64 0 0 517.27 142.64 0 0 -517.27zm10.37 -147.74c0,-23.92 -7.56,-42.92 -22.68,-57.34 -15.13,-14.43 -35.71,-21.64 -61.92,-21.64 -23.57,0 -42.74,7.21 -57.16,21.64 -14.43,14.42 -21.64,33.42 -21.64,57.34 0,23.92 7.21,43.09 21.46,57.51 14.25,14.43 33.42,21.64 57.34,21.64 26.21,0 46.79,-7.21 61.92,-21.64 15.12,-14.42 22.68,-33.59 22.68,-57.51z"/>
     <g>
      <path class="fil0" d="M4679.85 2179.57l158.79 -162.57c55.9,-57.17 85.41,-137.1 72.56,-216 -7.54,-46.32 -7.2,-95.25 2.75,-145.68 32.95,-166.78 170.25,-298.74 338.39,-323.79 277.72,-41.24 512.69,196.76 466,475.27 -29.07,173.82 -172.59,311.53 -347.36,334.71 -61.57,8.18 -120.93,2.59 -175.5,-14.12 -100.84,-30.88 -210.55,0.1 -284.28,75.6l-102.74 105.21 -105.21 102.73c-75.5,73.74 -106.48,183.45 -75.6,284.29 11.93,38.94 18.19,80.33 17.83,123.21 0.38,42.97 -5.88,84.44 -17.83,123.44 -30.88,100.84 0.1,210.55 75.61,284.28l105.2 102.74 102.75 105.21c73.72,75.5 183.43,106.48 284.27,75.6 54.56,-16.72 113.93,-22.3 175.5,-14.13 174.77,23.19 318.31,160.9 347.36,334.71 46.69,278.52 -188.28,516.51 -466,475.28 -168.14,-25.05 -305.45,-157.01 -338.39,-323.8 -9.95,-50.44 -10.29,-99.36 -2.74,-145.67 12.84,-78.9 -16.67,-158.84 -72.56,-216l-158.8 -162.58 -162.58 -158.8c-57.16,-55.88 -137.1,-85.41 -216,-72.55 -46.31,7.54 -95.24,7.19 -145.67,-2.75 -166.78,-32.95 -298.75,-170.25 -323.8,-338.39 -3.34,-22.48 -4.82,-44.67 -4.62,-66.46 -0.2,-21.8 1.28,-43.99 4.62,-66.48 25.05,-168.13 157,-305.45 323.8,-338.39 50.44,-9.94 99.37,-10.29 145.67,-2.75 78.9,12.86 158.83,-16.66 216,-72.55l162.58 -158.8z"/>
      <path class="fil0" d="M1044.44 2179.57l-158.79 -162.57c-55.89,-57.17 -85.41,-137.1 -72.55,-216 7.54,-46.32 7.19,-95.25 -2.75,-145.68 -32.95,-166.78 -170.26,-298.74 -338.39,-323.79 -277.72,-41.24 -512.69,196.76 -466.01,475.27 29.07,173.82 172.6,311.53 347.36,334.71 61.57,8.18 120.94,2.59 175.5,-14.12 100.84,-30.88 210.55,0.1 284.29,75.6l102.73 105.21 105.21 102.73c75.5,73.74 106.48,183.45 75.6,284.29 -11.92,38.94 -18.19,80.33 -17.82,123.21 -0.39,42.97 5.87,84.44 17.82,123.44 30.89,100.84 -0.09,210.55 -75.6,284.28l-105.21 102.74 -102.74 105.21c-73.73,75.5 -183.43,106.48 -284.28,75.6 -54.56,-16.72 -113.93,-22.3 -175.5,-14.13 -174.76,23.19 -318.3,160.9 -347.36,334.71 -46.68,278.52 188.29,516.51 466.01,475.28 168.13,-25.05 305.45,-157.01 338.39,-323.8 9.94,-50.44 10.29,-99.36 2.74,-145.67 -12.85,-78.9 16.67,-158.84 72.56,-216l158.79 -162.58 162.58 -158.8c57.17,-55.88 137.11,-85.41 216,-72.55 46.32,7.54 95.25,7.19 145.68,-2.75 166.78,-32.95 298.74,-170.25 323.79,-338.39 3.34,-22.48 4.82,-44.67 4.63,-66.46 0.19,-21.8 -1.29,-43.99 -4.63,-66.48 -25.05,-168.13 -157,-305.45 -323.79,-338.39 -50.45,-9.94 -99.37,-10.29 -145.68,-2.75 -78.9,12.86 -158.83,-16.66 -216,-72.55l-162.58 -158.8z"/>
     </g>
     <g>
      <path class="fil0" d="M2223.19 1044.44l-162.58 -158.79c-57.16,-55.89 -137.09,-85.41 -216,-72.56 -46.31,7.55 -95.24,7.2 -145.67,-2.74 -166.78,-32.95 -298.74,-170.26 -323.8,-338.4 -41.23,-277.71 196.77,-512.68 475.27,-466 173.83,29.07 311.54,172.6 334.72,347.36 8.18,61.57 2.59,120.94 -14.12,175.5 -30.88,100.84 0.09,210.55 75.59,284.28l105.22 102.74 102.73 105.21c73.73,75.5 183.45,106.48 284.29,75.6 38.93,-11.92 80.33,-18.19 123.2,-17.82 42.97,-0.39 84.45,5.87 123.44,17.82 100.85,30.89 210.56,-0.09 284.28,-75.6l102.74 -105.21 105.22 -102.74c75.5,-73.73 106.47,-183.43 75.59,-284.28 -16.71,-54.56 -22.3,-113.93 -14.12,-175.5 23.19,-174.76 160.89,-318.3 334.71,-347.36 278.51,-46.68 516.51,188.29 475.28,466 -25.06,168.14 -157.01,305.46 -323.8,338.4 -50.44,9.94 -99.36,10.29 -145.67,2.74 -78.9,-12.85 -158.84,16.67 -216,72.56l-162.58 158.79 -158.8 162.58c-55.89,57.17 -85.41,137.11 -72.55,216 7.54,46.32 7.19,95.25 -2.75,145.68 -32.95,166.78 -170.25,298.74 -338.39,323.79 -22.48,3.34 -44.68,4.82 -66.47,4.63 -21.79,0.19 -43.99,-1.29 -66.47,-4.63 -168.14,-25.05 -305.45,-157 -338.39,-323.79 -9.95,-50.45 -10.29,-99.37 -2.75,-145.68 12.86,-78.9 -16.66,-158.83 -72.55,-216l-158.8 -162.58z"/>
      <path class="fil0" d="M2223.19 4592.63l-162.58 158.79c-57.16,55.9 -137.09,85.41 -216,72.56 -46.31,-7.55 -95.24,-7.2 -145.67,2.74 -166.78,32.95 -298.74,170.26 -323.8,338.4 -41.23,277.71 196.77,512.68 475.27,466 173.83,-29.07 311.54,-172.6 334.72,-347.36 8.18,-61.57 2.59,-120.94 -14.12,-175.5 -30.88,-100.84 0.09,-210.55 75.59,-284.28l105.22 -102.74 102.73 -105.21c73.73,-75.5 183.45,-106.48 284.29,-75.6 38.93,11.93 80.33,18.19 123.2,17.82 42.97,0.39 84.45,-5.87 123.44,-17.82 100.85,-30.89 210.56,0.09 284.28,75.6l102.74 105.21 105.22 102.74c75.5,73.73 106.47,183.44 75.59,284.28 -16.71,54.56 -22.3,113.93 -14.12,175.5 23.19,174.76 160.89,318.3 334.71,347.36 278.51,46.68 516.51,-188.29 475.28,-466 -25.06,-168.14 -157.01,-305.46 -323.8,-338.4 -50.44,-9.94 -99.36,-10.29 -145.67,-2.74 -78.9,12.85 -158.84,-16.66 -216,-72.55l-162.58 -158.8 -158.8 -162.58c-55.89,-57.16 -85.41,-137.1 -72.55,-216 7.54,-46.32 7.19,-95.25 -2.75,-145.67 -32.95,-166.78 -170.25,-298.75 -338.39,-323.8 -22.48,-3.34 -44.68,-4.82 -66.47,-4.63 -21.79,-0.19 -43.99,1.29 -66.47,4.63 -168.14,25.05 -305.45,157 -338.39,323.8 -9.95,50.44 -10.29,99.36 -2.75,145.67 12.86,78.9 -16.66,158.83 -72.55,216l-158.8 162.58z"/>
     </g>
    </g>
    <path class="fil0" d="M2862.15 4828.52c223.27,0 404.27,181 404.27,404.28 0,223.27 -181,404.27 -404.27,404.27 -223.27,0 -404.27,-181 -404.27,-404.27 0,-223.28 181,-404.28 404.27,-404.28z"/>
    <path class="fil0" d="M5320.02 2414.26c223.27,0 404.27,181 404.27,404.27 0,223.28 -181,404.27 -404.27,404.27 -223.27,0 -404.27,-180.99 -404.27,-404.27 0,-223.27 181,-404.27 404.27,-404.27z"/>
    <path class="fil0" d="M2862.15 0c223.27,0 404.27,181 404.27,404.28 0,223.27 -181,404.27 -404.27,404.27 -223.27,0 -404.27,-181 -404.27,-404.27 0,-223.28 181,-404.28 404.27,-404.28z"/>
    <path class="fil0" d="M404.28 2414.26c223.27,0 404.27,181 404.27,404.27 0,223.28 -181,404.27 -404.27,404.27 -223.28,0 -404.28,-180.99 -404.28,-404.27 0,-223.27 181,-404.27 404.28,-404.27z"/>
   </g>
   <g>
    <path class="fil1" d="M7448.1 2513.65c0,72.91 -28.51,133.2 -85.53,180.4 -57.02,47.67 -136,71.51 -237.42,71.51 -87.86,0 -171.51,-19.63 -251.9,-58.89 -80.39,-39.26 -132.25,-70.57 -155.62,-93.94 -23.37,-23.37 -41.13,-42.07 -54.22,-57.02l-253.3 251.9 31.78 34.59c18.23,21.96 48.14,48.6 90.2,80.85 42.07,31.78 90.67,63.1 145.81,94.41 55.15,30.85 125.71,57.49 210.78,79.92 85.52,22.43 173.85,33.65 264.98,33.65 231.81,0 413.61,-57.49 545.87,-172.45 131.79,-114.96 197.69,-263.59 197.69,-444.92 0,-128.98 -33.18,-235.07 -100.02,-319.2 -66.36,-84.13 -147.68,-144.41 -243.02,-180.86 -95.34,-36.46 -190.21,-68.24 -284.62,-95.81 -94.41,-27.11 -174.78,-60.76 -241.15,-100.49 -65.9,-39.72 -99.08,-92.54 -99.08,-158.42 0,-58.43 24.3,-107.97 72.91,-149.09 49.07,-41.12 113.56,-61.69 193.94,-61.69 66.84,0 131.33,15.42 194.42,46.74 63.1,30.84 104.22,55.62 123.84,74.78 19.63,18.69 35.06,34.12 45.81,47.2l251.9 -267.32 -24.31 -27.11c-15.89,-19.16 -41.59,-42.06 -77.58,-67.77 -35.99,-26.17 -78.05,-51.88 -125.71,-76.65 -48.14,-25.24 -109.37,-47.2 -184.13,-65.9 -75.25,-18.69 -152.82,-28.04 -232.75,-28.04 -203.76,0 -369.2,56.08 -496.32,168.24 -127.58,112.63 -191.15,248.17 -191.15,406.6 0,128.98 33.19,235.07 100.02,319.2 66.37,84.13 147.21,144.41 241.62,180.86 94.41,36.46 189.28,68.24 284.62,94.88 95.34,27.1 176.19,60.76 242.55,100.95 65.9,40.19 99.09,93.01 99.09,158.89z"/>
    <polygon class="fil1" points="11469.68,3088.49 11469.68,2710.41 10558.82,2710.41 10558.82,1125.16 10137.27,1125.16 10137.27,3088.49 "/>
    <polygon class="fil1" points="13123.64,3088.49 13123.64,2710.41 12212.78,2710.41 12212.78,1125.16 11791.23,1125.16 11791.23,3088.49 "/>
    <polygon class="fil1" points="13670,1125.16 13220.87,1125.16 13921.9,2387.46 13921.9,3088.49 14343.45,3088.49 14343.45,2387.46 15044.47,1125.16 14595.35,1125.16 14132.67,1967.32 "/>
    <polygon class="fil1" points="16390.47,1125.16 15983.87,2471.12 15577.28,1125.16 15128.15,1125.16 15773.1,3088.49 16166.14,3088.49 16586.29,1770.1 17006.9,3088.49 17399.47,3088.49 18044.41,1125.16 17595.29,1125.16 17188.7,2471.12 16782.11,1125.16 "/>
    <path class="fil1" d="M19361.93 2261.29l-477.64 0 239.29 -644.48 238.35 644.48zm139.73 364.52l168.24 462.68 449.13 0 -772.07 -1963.33 -447.72 0 -772.07 1963.33 449.13 0 168.24 -462.68 757.11 0z"/>
    <path class="fil1" d="M20398.55 3088.49l421.55 0 0 -687.47 364.53 0 377.61 687.47 449.13 0 -420.15 -743.56 35.52 -19.16c24.77,-10.75 54.22,-31.31 88.8,-61.69 35.05,-29.91 68.7,-65.9 102.36,-107.96 33.18,-42.07 62.16,-97.22 86.93,-165.91 24.3,-68.24 36.92,-141.6 36.92,-220.12 0,-180.86 -63.56,-333.69 -191.15,-458 -127.11,-124.78 -288.35,-186.94 -482.77,-186.94l-869.27 0 0 1963.33zm1122.58 -1318.39c0,71.04 -25.24,130.85 -75.72,179.93 -50.94,48.6 -114.49,73.37 -191.14,73.37l-434.17 0 0 -519.22 434.17 0c76.65,0 140.2,25.23 191.14,75.24 50.48,50.48 75.72,114.03 75.72,190.68z"/>
    <g>
     <polygon class="fil1" points="8695.49,2710.41 8695.49,2275.3 9493.72,2275.3 9493.72,1897.2 8273.91,1901.7 8273.91,3088.49 9747.02,3088.49 9747.02,2710.41 "/>
     <polygon class="fil0" points="9718.52,1504.15 8273.91,1504.15 8273.91,1125.12 9718.52,1125.12 "/>
    </g>
    <g>
     <polygon class="fil1" points="22811.06,2710.41 22811.06,2275.3 23609.29,2275.3 23609.29,1897.2 22389.49,1901.7 22389.49,3088.49 23862.6,3088.49 23862.6,2710.41 "/>
     <polygon class="fil0" points="23834.1,1504.15 22389.49,1504.15 22389.49,1125.12 23834.1,1125.12 "/>
    </g>
    <path class="fil1" d="M7448.09 2513.66c0,72.91 -28.51,133.19 -85.53,180.39 -57.02,47.67 -135.99,71.51 -237.41,71.51 -87.87,0 -171.51,-19.63 -251.9,-58.89 -80.39,-39.26 -132.26,-70.57 -155.63,-93.94 -23.36,-23.37 -41.12,-42.06 -54.21,-57.02l-253.3 251.9 31.78 34.59c18.23,21.96 48.14,48.6 90.2,80.85 42.06,31.78 90.67,63.1 145.81,94.41 55.15,30.85 125.71,57.49 210.77,79.92 85.53,22.43 173.85,33.65 264.99,33.65 231.8,0 413.6,-57.49 545.86,-172.45 131.79,-114.96 197.69,-263.58 197.69,-444.91 0,-128.98 -33.18,-235.08 -100.02,-319.2 -66.36,-84.13 -147.68,-144.41 -243.02,-180.86 -95.34,-36.46 -190.21,-68.24 -284.62,-95.81 -94.4,-27.11 -174.78,-60.76 -241.15,-100.49 -65.89,-39.72 -99.08,-92.54 -99.08,-158.42 0,-58.43 24.31,-107.97 72.91,-149.08 49.07,-41.13 113.56,-61.7 193.95,-61.7 66.83,0 131.32,15.43 194.41,46.74 63.1,30.85 104.23,55.62 123.85,74.78 19.62,18.69 35.05,34.12 45.8,47.2l251.9 -267.32 -24.31 -27.11c-15.89,-19.16 -41.59,-42.06 -77.58,-67.77 -35.99,-26.17 -78.05,-51.87 -125.71,-76.64 -48.14,-25.24 -109.36,-47.21 -184.13,-65.9 -75.25,-18.7 -152.82,-28.05 -232.74,-28.05 -203.76,0 -369.2,56.09 -496.32,168.25 -127.59,112.62 -191.15,248.16 -191.15,406.59 0,128.98 33.19,235.07 100.02,319.2 66.37,84.12 147.21,144.4 241.62,180.86 94.41,36.45 189.27,68.23 284.61,94.87 95.35,27.11 176.19,60.76 242.56,100.95 65.9,40.2 99.08,93.01 99.08,158.9z"/>
   </g>
   <path class="fil2" d="M15857.94 4553.05c219.32,0 308.34,-100.63 308.34,-276.09 0,-201.26 -139.33,-249 -281.25,-292.87 -105.8,-33.54 -188.36,-64.51 -188.36,-169 0,-89.03 52.9,-134.17 166.43,-134.17 110.95,0 157.39,45.15 166.42,167.71l122.56 -18.06c-14.19,-169.01 -89.02,-263.19 -288.99,-263.19 -199.98,0 -289,95.47 -289,251.58 0,188.36 134.17,232.22 274.8,277.38 109.67,37.42 194.81,69.67 194.81,185.78 0,107.09 -51.6,157.39 -185.77,157.39 -113.53,0 -166.43,-42.57 -183.2,-176.74l-121.27 19.35c20.64,180.62 101.92,270.93 304.48,270.93zm1023.96 0c202.55,0 323.83,-104.5 323.83,-330.28l0 -325.12c0,-227.07 -121.27,-330.28 -323.83,-330.28 -202.55,0 -323.83,103.21 -323.83,330.28l0 325.12c0,225.78 119.98,330.28 323.83,330.28zm0 -114.82c-130.3,0 -198.68,-67.09 -198.68,-218.03l0 -318.67c0,-150.94 68.38,-218.03 198.68,-218.03 129.01,0 198.68,67.09 198.68,218.03l0 318.67c0,150.94 -69.67,218.03 -198.68,218.03zm760.79 105.8l521.22 0 -19.36 -114.82 -376.71 0 0 -852.78 -125.14 0 0 967.61zm1204.59 9.03c203.84,0 309.64,-104.5 309.64,-330.28l0 -646.36 -123.85 0 0 643.78c0,148.36 -55.48,216.74 -185.78,216.74 -130.3,0 -184.49,-68.38 -184.49,-216.74l0 -643.78 -123.85 0 0 646.36c0,225.78 104.51,330.28 308.35,330.28zm934.95 -9.03l126.43 0 0 -850.2 246.42 0 0 -117.4 -619.27 0 0 117.4 246.42 0 0 850.2zm776.27 0l123.85 0 0 -967.61 -123.85 0 0 967.61zm893.66 9.03c202.55,0 323.83,-104.5 323.83,-330.28l0 -325.12c0,-227.07 -121.27,-330.28 -323.83,-330.28 -202.55,0 -323.83,103.21 -323.83,330.28l0 325.12c0,225.78 119.98,330.28 323.83,330.28zm0 -114.82c-130.3,0 -198.68,-67.09 -198.68,-218.03l0 -318.67c0,-150.94 68.38,-218.03 198.68,-218.03 129.01,0 198.68,67.09 198.68,218.03l0 318.67c0,150.94 -69.67,218.03 -198.68,218.03zm760.79 105.8l122.55 0 0 -732.8 2.59 0 371.55 732.8 121.27 0 0 -967.61 -119.98 0 0 709.58 -2.58 0 -362.52 -709.58 -132.88 0 0 967.61zm1341.35 9.03c219.32,0 308.34,-100.63 308.34,-276.09 0,-201.26 -139.33,-249 -281.25,-292.87 -105.8,-33.54 -188.36,-64.51 -188.36,-169 0,-89.03 52.9,-134.17 166.43,-134.17 110.95,0 157.39,45.15 166.42,167.71l122.56 -18.06c-14.19,-169.01 -89.02,-263.19 -288.99,-263.19 -199.98,0 -289,95.47 -289,251.58 0,188.36 134.17,232.22 274.8,277.38 109.67,37.42 194.81,69.67 194.81,185.78 0,107.09 -51.6,157.39 -185.77,157.39 -113.53,0 -166.43,-42.57 -183.2,-176.74l-121.27 19.35c20.64,180.62 101.92,270.93 304.48,270.93z"/>
  </g>
 </g>
</svg>
